<?xml version="1.0" standalone="no"?>
<!DOCTYPE svg PUBLIC "-//W3C//DTD SVG 20010904//EN"
 "http://www.w3.org/TR/2001/REC-SVG-20010904/DTD/svg10.dtd">
<svg version="1.0" xmlns="http://www.w3.org/2000/svg"
 width="564.000000pt" height="564.000000pt" viewBox="0 0 564.000000 564.000000"
 preserveAspectRatio="xMidYMid meet">
<metadata>
Created by potrace 1.14, written by Peter Selinger 2001-2017
</metadata>
<g transform="translate(0.000000,564.000000) scale(0.100000,-0.100000)"
fill="#000000" stroke="none">
<path d="M0 2820 l0 -2820 2820 0 2820 0 0 2820 0 2820 -2820 0 -2820 0 0
-2820z m1817 2661 c177 -70 375 -161 371 -171 -2 -4 -23 -53 -48 -109 l-45
-101 -85 6 c-47 4 -87 8 -89 10 -2 2 -10 -1 -17 -7 -9 -8 -37 3 -107 40 -51
28 -97 48 -100 44 -15 -15 -86 31 -126 83 -23 30 -57 61 -74 70 -36 19 -205
133 -211 143 -2 3 51 6 117 6 100 1 132 5 177 22 30 12 62 22 71 22 9 1 84
-26 166 -58z m1348 -66 c141 -46 250 -110 340 -200 92 -92 136 -167 165 -281
47 -183 1 -404 -121 -581 -27 -38 -179 -416 -179 -443 0 -4 13 -5 30 -2 42 6
90 -43 90 -91 0 -43 -41 -97 -74 -97 -19 0 -45 -41 -172 -277 -82 -153 -155
-289 -161 -303 -7 -14 -17 -32 -23 -40 -9 -14 -36 -79 -122 -292 -22 -53 -34
-97 -31 -112 7 -36 17 -32 32 10 12 32 16 35 39 29 15 -4 29 -8 31 -11 2 -2
-73 -169 -168 -371 -94 -203 -171 -372 -171 -378 0 -5 -10 -26 -22 -45 -27
-43 -108 -220 -108 -236 0 -6 -10 -26 -23 -45 -34 -51 -109 -225 -105 -243 1
-9 95 182 208 425 113 242 207 442 210 444 3 2 12 0 20 -5 10 -6 -45 -133
-249 -572 -145 -309 -266 -566 -269 -570 -4 -4 -14 -3 -22 2 -12 8 -9 21 23
86 38 77 43 99 15 67 -17 -21 -108 -214 -108 -230 0 -7 9 -15 20 -18 11 -4 33
-18 47 -31 17 -16 36 -24 52 -22 24 3 25 6 22 65 -4 106 50 180 154 211 l58
18 54 124 54 125 -16 56 c-18 65 -12 107 21 166 25 43 83 85 137 97 15 4 27
10 27 14 0 20 124 194 184 259 124 134 255 222 442 298 l108 44 21 78 c54 201
148 272 242 181 132 -127 224 -452 240 -838 15 -380 -73 -670 -203 -670 -46 0
-110 59 -153 140 -18 33 -35 60 -38 60 -3 0 -40 -18 -82 -40 -178 -93 -289
-218 -537 -605 -280 -439 -427 -591 -644 -666 -99 -34 -278 -38 -396 -9 -177
44 -293 101 -390 192 -116 109 -168 226 -180 405 -4 66 -11 102 -21 109 -12
10 -10 21 13 70 14 33 32 88 40 124 8 36 27 105 43 154 l28 89 -68 31 c-38 17
-69 35 -69 39 0 16 43 107 50 107 5 0 36 -13 71 -30 l62 -29 42 97 c23 53 146
304 272 557 127 253 277 555 335 670 57 116 198 397 314 625 303 598 441 921
521 1218 33 124 37 150 37 267 1 116 -1 135 -21 171 -28 53 -100 116 -172 151
-73 36 -168 37 -291 3 -130 -36 -313 -32 -470 10 l-38 10 26 61 c19 46 29 58
41 53 9 -3 59 -9 112 -11 l95 -5 85 40 c127 61 214 83 359 89 105 4 139 2 215
-16 112 -27 212 -75 294 -141 60 -49 62 -50 45 -19 -38 65 -125 148 -187 179
-134 65 -274 66 -498 5 -58 -16 -74 -17 -122 -6 -31 7 -61 19 -67 27 -11 12
-4 14 42 14 30 0 104 9 164 19 165 30 164 30 244 26 44 -3 108 -15 155 -30z"/>
<path d="M3609 4798 c0 -2 -2 -46 -4 -98 -2 -52 -8 -117 -14 -144 -7 -27 -10
-51 -7 -53 8 -9 58 162 63 218 5 51 3 58 -16 68 -11 7 -21 10 -22 9z"/>
<path d="M3300 3734 c-63 -161 -90 -240 -88 -251 2 -7 34 45 71 114 l68 126
-20 21 -20 20 -11 -30z"/>
<path d="M2843 2543 c-11 -10 -32 -46 -47 -81 -26 -64 -32 -92 -18 -92 8 1 94
181 89 187 -2 2 -13 -4 -24 -14z"/>
<path d="M2216 2378 l-34 -73 30 -13 c17 -7 32 -12 33 -10 2 2 17 34 34 72 33
73 30 96 -11 96 -14 0 -28 -19 -52 -72z"/>
<path d="M2150 2238 l-19 -43 22 -12 c32 -18 35 -17 58 29 20 40 20 42 3 55
-30 22 -44 15 -64 -29z"/>
<path d="M2673 2167 c-37 -86 -36 -96 1 -27 37 68 41 80 29 80 -5 0 -18 -24
-30 -53z"/>
<path d="M2084 2094 c-28 -60 -33 -78 -23 -90 26 -32 48 -16 84 63 33 72 35
79 19 90 -32 24 -45 14 -80 -63z"/>
<path d="M2427 1962 c-19 -21 -21 -45 -7 -73 23 -41 90 -10 90 42 0 48 -51 67
-83 31z"/>
<path d="M2076 1901 c-11 -17 5 -39 40 -56 41 -19 67 -17 72 7 6 32 -96 76
-112 49z"/>
<path d="M2345 1775 c-28 -27 -30 -37 -15 -66 12 -22 62 -26 78 -6 22 28 23
56 3 76 -27 27 -37 26 -66 -4z"/>
<path d="M2170 1642 c-28 -22 -30 -70 -4 -89 23 -17 27 -17 58 8 31 24 33 52
6 79 -25 25 -32 25 -60 2z"/>
<path d="M1906 1484 c-11 -28 -7 -33 41 -54 45 -20 48 -20 60 -4 20 27 16 33
-29 54 -52 24 -64 25 -72 4z"/>
<path d="M2285 960 c-8 -24 -15 -25 -63 -5 -34 15 -38 15 -49 -1 -16 -21 -17
-137 -3 -165 14 -25 43 -24 91 3 28 16 45 36 67 82 l29 61 -30 23 c-37 27 -34
26 -42 2z"/>
</g>
</svg>
